<svg width="455" height="737" viewBox="0 0 455 737" fill="none" xmlns="http://www.w3.org/2000/svg">
<g filter="url(#filter0_d_538_283)">
<rect x="51" y="47" width="353" height="635" rx="33" fill="url(#paint0_linear_538_283)"/>
</g>
<g filter="url(#filter1_d_538_283)">
<rect x="61" y="59" width="333" height="611" rx="25" fill="black"/>
</g>
<mask id="mask0_538_283" style="mask-type:alpha" maskUnits="userSpaceOnUse" x="61" y="59" width="333" height="611">
<rect x="61" y="59" width="333" height="611" rx="25" fill="black"/>
</mask>
<g mask="url(#mask0_538_283)">
<path d="M191.636 37L315.196 236.976H320.482L445.365 37H628.393L424.22 353.5L635 670H447.347L320.482 467.861H315.196L188.333 670H2L211.789 353.5L7.28601 37H191.636Z" fill="white" fill-opacity="0.13"/>
</g>
<path d="M129.719 384.185V396H127.781V387.908L124.177 396H122.834L119.213 387.908V396H117.275V384.185H119.366L123.514 393.45L127.645 384.185H129.719ZM131.62 391.274C131.62 390.333 131.813 389.5 132.198 388.775C132.595 388.05 133.128 387.489 133.796 387.092C134.476 386.684 135.224 386.48 136.04 386.48C136.777 386.48 137.417 386.627 137.961 386.922C138.517 387.205 138.959 387.562 139.287 387.993V386.633H141.242V396H139.287V394.606C138.959 395.048 138.511 395.416 137.944 395.711C137.378 396.006 136.732 396.153 136.006 396.153C135.202 396.153 134.465 395.949 133.796 395.541C133.128 395.122 132.595 394.544 132.198 393.807C131.813 393.059 131.62 392.215 131.62 391.274ZM139.287 391.308C139.287 390.662 139.151 390.101 138.879 389.625C138.619 389.149 138.273 388.786 137.842 388.537C137.412 388.288 136.947 388.163 136.448 388.163C135.95 388.163 135.485 388.288 135.054 388.537C134.624 388.775 134.272 389.132 134 389.608C133.74 390.073 133.609 390.628 133.609 391.274C133.609 391.92 133.74 392.487 134 392.974C134.272 393.461 134.624 393.835 135.054 394.096C135.496 394.345 135.961 394.47 136.448 394.47C136.947 394.47 137.412 394.345 137.842 394.096C138.273 393.847 138.619 393.484 138.879 393.008C139.151 392.521 139.287 391.954 139.287 391.308ZM152.22 386.633L146.474 400.403H144.468L146.372 395.847L142.683 386.633H144.842L147.477 393.773L150.214 386.633H152.22ZM158.914 393.365C160.002 392.424 160.858 391.654 161.481 391.053C162.116 390.441 162.643 389.806 163.062 389.149C163.482 388.492 163.691 387.834 163.691 387.177C163.691 386.497 163.527 385.964 163.198 385.579C162.881 385.194 162.377 385.001 161.685 385.001C161.017 385.001 160.495 385.216 160.121 385.647C159.759 386.066 159.566 386.633 159.543 387.347H157.673C157.707 386.055 158.093 385.069 158.829 384.389C159.577 383.698 160.524 383.352 161.668 383.352C162.904 383.352 163.867 383.692 164.558 384.372C165.261 385.052 165.612 385.959 165.612 387.092C165.612 387.908 165.403 388.696 164.983 389.455C164.575 390.203 164.082 390.877 163.504 391.478C162.938 392.067 162.212 392.753 161.328 393.535L160.563 394.215H165.952V395.83H157.69V394.419L158.914 393.365ZM167.655 389.642C167.655 387.681 167.983 386.151 168.641 385.052C169.309 383.941 170.454 383.386 172.075 383.386C173.695 383.386 174.834 383.941 175.492 385.052C176.16 386.151 176.495 387.681 176.495 389.642C176.495 391.625 176.16 393.178 175.492 394.3C174.834 395.411 173.695 395.966 172.075 395.966C170.454 395.966 169.309 395.411 168.641 394.3C167.983 393.178 167.655 391.625 167.655 389.642ZM174.591 389.642C174.591 388.724 174.528 387.948 174.404 387.313C174.29 386.678 174.052 386.163 173.69 385.766C173.327 385.358 172.789 385.154 172.075 385.154C171.361 385.154 170.822 385.358 170.46 385.766C170.097 386.163 169.853 386.678 169.729 387.313C169.615 387.948 169.559 388.724 169.559 389.642C169.559 390.594 169.615 391.393 169.729 392.039C169.842 392.685 170.08 393.206 170.443 393.603C170.817 394 171.361 394.198 172.075 394.198C172.789 394.198 173.327 394 173.69 393.603C174.064 393.206 174.307 392.685 174.421 392.039C174.534 391.393 174.591 390.594 174.591 389.642ZM180.925 393.671L178.868 398.363H177.61L178.817 393.671H180.925ZM187.851 393.365C188.939 392.424 189.794 391.654 190.418 391.053C191.052 390.441 191.579 389.806 191.999 389.149C192.418 388.492 192.628 387.834 192.628 387.177C192.628 386.497 192.463 385.964 192.135 385.579C191.817 385.194 191.313 385.001 190.622 385.001C189.953 385.001 189.432 385.216 189.058 385.647C188.695 386.066 188.502 386.633 188.48 387.347H186.61C186.644 386.055 187.029 385.069 187.766 384.389C188.514 383.698 189.46 383.352 190.605 383.352C191.84 383.352 192.803 383.692 193.495 384.372C194.197 385.052 194.549 385.959 194.549 387.092C194.549 387.908 194.339 388.696 193.92 389.455C193.512 390.203 193.019 390.877 192.441 391.478C191.874 392.067 191.149 392.753 190.265 393.535L189.5 394.215H194.889V395.83H186.627V394.419L187.851 393.365ZM196.591 389.642C196.591 387.681 196.92 386.151 197.577 385.052C198.246 383.941 199.391 383.386 201.011 383.386C202.632 383.386 203.771 383.941 204.428 385.052C205.097 386.151 205.431 387.681 205.431 389.642C205.431 391.625 205.097 393.178 204.428 394.3C203.771 395.411 202.632 395.966 201.011 395.966C199.391 395.966 198.246 395.411 197.577 394.3C196.92 393.178 196.591 391.625 196.591 389.642ZM203.527 389.642C203.527 388.724 203.465 387.948 203.34 387.313C203.227 386.678 202.989 386.163 202.626 385.766C202.264 385.358 201.725 385.154 201.011 385.154C200.297 385.154 199.759 385.358 199.396 385.766C199.034 386.163 198.79 386.678 198.665 387.313C198.552 387.948 198.495 388.724 198.495 389.642C198.495 390.594 198.552 391.393 198.665 392.039C198.779 392.685 199.017 393.206 199.379 393.603C199.753 394 200.297 394.198 201.011 394.198C201.725 394.198 202.264 394 202.626 393.603C203 393.206 203.244 392.685 203.357 392.039C203.471 391.393 203.527 390.594 203.527 389.642ZM208.553 393.365C209.641 392.424 210.497 391.654 211.12 391.053C211.755 390.441 212.282 389.806 212.701 389.149C213.12 388.492 213.33 387.834 213.33 387.177C213.33 386.497 213.166 385.964 212.837 385.579C212.52 385.194 212.015 385.001 211.324 385.001C210.655 385.001 210.134 385.216 209.76 385.647C209.397 386.066 209.205 386.633 209.182 387.347H207.312C207.346 386.055 207.731 385.069 208.468 384.389C209.216 383.698 210.162 383.352 211.307 383.352C212.542 383.352 213.506 383.692 214.197 384.372C214.9 385.052 215.251 385.959 215.251 387.092C215.251 387.908 215.041 388.696 214.622 389.455C214.214 390.203 213.721 390.877 213.143 391.478C212.576 392.067 211.851 392.753 210.967 393.535L210.202 394.215H215.591V395.83H207.329V394.419L208.553 393.365ZM218.364 393.365C219.452 392.424 220.308 391.654 220.931 391.053C221.566 390.441 222.093 389.806 222.512 389.149C222.932 388.492 223.141 387.834 223.141 387.177C223.141 386.497 222.977 385.964 222.648 385.579C222.331 385.194 221.827 385.001 221.135 385.001C220.467 385.001 219.945 385.216 219.571 385.647C219.209 386.066 219.016 386.633 218.993 387.347H217.123C217.157 386.055 217.543 385.069 218.279 384.389C219.027 383.698 219.974 383.352 221.118 383.352C222.354 383.352 223.317 383.692 224.008 384.372C224.711 385.052 225.062 385.959 225.062 387.092C225.062 387.908 224.853 388.696 224.433 389.455C224.025 390.203 223.532 390.877 222.954 391.478C222.388 392.067 221.662 392.753 220.778 393.535L220.013 394.215H225.402V395.83H217.14V394.419L218.364 393.365Z" fill="white" fill-opacity="0.8"/>
<path d="M122.423 425L118.9 420.685V425H116.957V415.316H118.9V419.659L122.423 415.316H124.768L120.772 420.117L124.879 425H122.423ZM133.218 418.313C133.218 418.831 133.093 419.317 132.843 419.77C132.603 420.223 132.219 420.588 131.692 420.866C131.174 421.143 130.517 421.282 129.722 421.282H128.099V425H126.156V415.316H129.722C130.471 415.316 131.109 415.446 131.636 415.705C132.164 415.964 132.557 416.32 132.816 416.773C133.084 417.226 133.218 417.74 133.218 418.313ZM129.639 419.714C130.175 419.714 130.573 419.594 130.832 419.354C131.091 419.104 131.22 418.757 131.22 418.313C131.22 417.37 130.693 416.898 129.639 416.898H128.099V419.714H129.639ZM146.185 425H144.243L139.845 418.355V425H137.903V415.303H139.845L144.243 421.962V415.303H146.185V425ZM147.605 421.129C147.605 420.352 147.758 419.663 148.063 419.062C148.377 418.461 148.798 417.999 149.325 417.675C149.862 417.351 150.458 417.189 151.115 417.189C151.688 417.189 152.188 417.305 152.613 417.536C153.048 417.767 153.395 418.059 153.654 418.41V417.314H155.61V425H153.654V423.876C153.404 424.237 153.057 424.538 152.613 424.778C152.179 425.009 151.675 425.125 151.101 425.125C150.454 425.125 149.862 424.958 149.325 424.625C148.798 424.292 148.377 423.825 148.063 423.224C147.758 422.614 147.605 421.915 147.605 421.129ZM153.654 421.157C153.654 420.685 153.561 420.283 153.376 419.95C153.191 419.608 152.942 419.349 152.627 419.173C152.313 418.988 151.975 418.896 151.614 418.896C151.254 418.896 150.921 418.984 150.616 419.159C150.31 419.335 150.061 419.594 149.866 419.936C149.681 420.269 149.589 420.667 149.589 421.129C149.589 421.592 149.681 421.999 149.866 422.35C150.061 422.692 150.31 422.956 150.616 423.141C150.93 423.326 151.263 423.418 151.614 423.418C151.975 423.418 152.313 423.331 152.627 423.155C152.942 422.97 153.191 422.711 153.376 422.378C153.561 422.036 153.654 421.629 153.654 421.157ZM164.763 417.314V425H162.807V424.029C162.557 424.362 162.229 424.625 161.822 424.82C161.424 425.005 160.989 425.097 160.517 425.097C159.916 425.097 159.384 424.972 158.922 424.723C158.46 424.464 158.094 424.089 157.826 423.599C157.567 423.099 157.438 422.507 157.438 421.823V417.314H159.38V421.546C159.38 422.156 159.532 422.628 159.838 422.961C160.143 423.284 160.559 423.446 161.086 423.446C161.623 423.446 162.044 423.284 162.349 422.961C162.654 422.628 162.807 422.156 162.807 421.546V417.314H164.763ZM168.94 418.91V422.628C168.94 422.887 169.001 423.076 169.121 423.196C169.25 423.307 169.463 423.363 169.759 423.363H170.661V425H169.44C167.803 425 166.984 424.205 166.984 422.614V418.91H166.069V417.314H166.984V415.414H168.94V417.314H170.661V418.91H168.94ZM173.043 416.399C172.701 416.399 172.414 416.292 172.183 416.079C171.961 415.857 171.85 415.585 171.85 415.261C171.85 414.937 171.961 414.669 172.183 414.456C172.414 414.234 172.701 414.123 173.043 414.123C173.385 414.123 173.667 414.234 173.889 414.456C174.12 414.669 174.236 414.937 174.236 415.261C174.236 415.585 174.12 415.857 173.889 416.079C173.667 416.292 173.385 416.399 173.043 416.399ZM174 417.314V425H172.058V417.314H174ZM183.272 417.314L178.513 428.635H176.446L178.111 424.806L175.031 417.314H177.209L179.193 422.683L181.205 417.314H183.272ZM183.819 421.129C183.819 420.352 183.972 419.663 184.277 419.062C184.592 418.461 185.012 417.999 185.54 417.675C186.076 417.351 186.673 417.189 187.329 417.189C187.903 417.189 188.402 417.305 188.828 417.536C189.262 417.767 189.609 418.059 189.868 418.41V417.314H191.824V425H189.868V423.876C189.618 424.237 189.272 424.538 188.828 424.778C188.393 425.009 187.889 425.125 187.315 425.125C186.668 425.125 186.076 424.958 185.54 424.625C185.012 424.292 184.592 423.825 184.277 423.224C183.972 422.614 183.819 421.915 183.819 421.129ZM189.868 421.157C189.868 420.685 189.776 420.283 189.591 419.95C189.406 419.608 189.156 419.349 188.842 419.173C188.527 418.988 188.189 418.896 187.829 418.896C187.468 418.896 187.135 418.984 186.83 419.159C186.525 419.335 186.275 419.594 186.081 419.936C185.896 420.269 185.803 420.667 185.803 421.129C185.803 421.592 185.896 421.999 186.081 422.35C186.275 422.692 186.525 422.956 186.83 423.141C187.144 423.326 187.477 423.418 187.829 423.418C188.189 423.418 188.527 423.331 188.842 423.155C189.156 422.97 189.406 422.711 189.591 422.378C189.776 422.036 189.868 421.629 189.868 421.157ZM195.664 414.734V425H193.721V414.734H195.664ZM206.826 423.155H202.969L202.331 425H200.292L203.774 415.303H206.035L209.517 425H207.464L206.826 423.155ZM206.299 421.601L204.898 417.55L203.496 421.601H206.299ZM218.075 417.314V425H216.119V424.029C215.869 424.362 215.541 424.625 215.134 424.82C214.736 425.005 214.301 425.097 213.83 425.097C213.228 425.097 212.697 424.972 212.234 424.723C211.772 424.464 211.406 424.089 211.138 423.599C210.879 423.099 210.75 422.507 210.75 421.823V417.314H212.692V421.546C212.692 422.156 212.845 422.628 213.15 422.961C213.455 423.284 213.871 423.446 214.398 423.446C214.935 423.446 215.356 423.284 215.661 422.961C215.966 422.628 216.119 422.156 216.119 421.546V417.314H218.075ZM219.492 421.129C219.492 420.352 219.644 419.663 219.95 419.062C220.264 418.461 220.689 417.999 221.226 417.675C221.762 417.351 222.359 417.189 223.016 417.189C223.515 417.189 223.991 417.3 224.445 417.522C224.898 417.735 225.258 418.022 225.527 418.382V414.734H227.497V425H225.527V423.862C225.286 424.242 224.949 424.547 224.514 424.778C224.079 425.009 223.575 425.125 223.002 425.125C222.354 425.125 221.762 424.958 221.226 424.625C220.689 424.292 220.264 423.825 219.95 423.224C219.644 422.614 219.492 421.915 219.492 421.129ZM225.541 421.157C225.541 420.685 225.448 420.283 225.263 419.95C225.078 419.608 224.828 419.349 224.514 419.173C224.199 418.988 223.862 418.896 223.501 418.896C223.14 418.896 222.807 418.984 222.502 419.159C222.197 419.335 221.947 419.594 221.753 419.936C221.568 420.269 221.476 420.667 221.476 421.129C221.476 421.592 221.568 421.999 221.753 422.35C221.947 422.692 222.197 422.956 222.502 423.141C222.817 423.326 223.15 423.418 223.501 423.418C223.862 423.418 224.199 423.331 224.514 423.155C224.828 422.97 225.078 422.711 225.263 422.378C225.448 422.036 225.541 421.629 225.541 421.157ZM230.379 416.399C230.036 416.399 229.75 416.292 229.518 416.079C229.296 415.857 229.186 415.585 229.186 415.261C229.186 414.937 229.296 414.669 229.518 414.456C229.75 414.234 230.036 414.123 230.379 414.123C230.721 414.123 231.003 414.234 231.225 414.456C231.456 414.669 231.572 414.937 231.572 415.261C231.572 415.585 231.456 415.857 231.225 416.079C231.003 416.292 230.721 416.399 230.379 416.399ZM231.336 417.314V425H229.394V417.314H231.336ZM235.516 418.91V422.628C235.516 422.887 235.576 423.076 235.697 423.196C235.826 423.307 236.039 423.363 236.335 423.363H237.236V425H236.016C234.379 425 233.56 424.205 233.56 422.614V418.91H232.644V417.314H233.56V415.414H235.516V417.314H237.236V418.91H235.516ZM242.046 425.125C241.306 425.125 240.64 424.963 240.049 424.639C239.457 424.306 238.99 423.839 238.647 423.238C238.314 422.637 238.148 421.943 238.148 421.157C238.148 420.371 238.319 419.677 238.661 419.076C239.013 418.475 239.489 418.012 240.09 417.689C240.691 417.356 241.362 417.189 242.102 417.189C242.842 417.189 243.512 417.356 244.113 417.689C244.715 418.012 245.186 418.475 245.529 419.076C245.88 419.677 246.056 420.371 246.056 421.157C246.056 421.943 245.875 422.637 245.515 423.238C245.163 423.839 244.682 424.306 244.072 424.639C243.471 424.963 242.795 425.125 242.046 425.125ZM242.046 423.432C242.398 423.432 242.726 423.349 243.031 423.183C243.346 423.007 243.595 422.748 243.78 422.406C243.965 422.063 244.058 421.647 244.058 421.157C244.058 420.426 243.864 419.867 243.475 419.478C243.096 419.081 242.629 418.882 242.074 418.882C241.519 418.882 241.052 419.081 240.673 419.478C240.303 419.867 240.118 420.426 240.118 421.157C240.118 421.888 240.298 422.452 240.659 422.85C241.029 423.238 241.491 423.432 242.046 423.432ZM249.423 418.507C249.672 418.1 249.996 417.781 250.394 417.55C250.801 417.319 251.263 417.203 251.781 417.203V419.243H251.268C250.657 419.243 250.195 419.386 249.881 419.673C249.575 419.959 249.423 420.459 249.423 421.171V425H247.48V417.314H249.423V418.507ZM254.074 416.399C253.732 416.399 253.445 416.292 253.214 416.079C252.992 415.857 252.881 415.585 252.881 415.261C252.881 414.937 252.992 414.669 253.214 414.456C253.445 414.234 253.732 414.123 254.074 414.123C254.417 414.123 254.699 414.234 254.921 414.456C255.152 414.669 255.268 414.937 255.268 415.261C255.268 415.585 255.152 415.857 254.921 416.079C254.699 416.292 254.417 416.399 254.074 416.399ZM255.032 417.314V425H253.089V417.314H255.032ZM264.206 417.314V425H262.25V424.029C262.001 424.362 261.672 424.625 261.265 424.82C260.868 425.005 260.433 425.097 259.961 425.097C259.36 425.097 258.828 424.972 258.366 424.723C257.903 424.464 257.538 424.089 257.27 423.599C257.011 423.099 256.881 422.507 256.881 421.823V417.314H258.824V421.546C258.824 422.156 258.976 422.628 259.281 422.961C259.587 423.284 260.003 423.446 260.53 423.446C261.066 423.446 261.487 423.284 261.792 422.961C262.098 422.628 262.25 422.156 262.25 421.546V417.314H264.206ZM275.668 417.203C276.611 417.203 277.369 417.495 277.943 418.077C278.525 418.651 278.817 419.455 278.817 420.491V425H276.875V420.755C276.875 420.154 276.722 419.696 276.417 419.381C276.112 419.058 275.695 418.896 275.168 418.896C274.641 418.896 274.22 419.058 273.906 419.381C273.6 419.696 273.448 420.154 273.448 420.755V425H271.506V420.755C271.506 420.154 271.353 419.696 271.048 419.381C270.743 419.058 270.326 418.896 269.799 418.896C269.263 418.896 268.837 419.058 268.523 419.381C268.218 419.696 268.065 420.154 268.065 420.755V425H266.123V417.314H268.065V418.244C268.315 417.92 268.634 417.666 269.022 417.481C269.42 417.296 269.855 417.203 270.326 417.203C270.928 417.203 271.464 417.333 271.936 417.592C272.407 417.841 272.773 418.202 273.032 418.674C273.281 418.23 273.642 417.874 274.114 417.606C274.595 417.337 275.113 417.203 275.668 417.203Z" fill="#EE2922"/>
<path d="M124.019 439.133C123.769 438.652 123.422 438.291 122.978 438.051C122.534 437.801 122.021 437.676 121.438 437.676C120.8 437.676 120.231 437.819 119.732 438.106C119.232 438.393 118.839 438.8 118.553 439.327C118.275 439.854 118.136 440.465 118.136 441.158C118.136 441.852 118.275 442.467 118.553 443.003C118.839 443.531 119.232 443.937 119.732 444.224C120.231 444.511 120.8 444.654 121.438 444.654C122.298 444.654 122.997 444.414 123.533 443.933C124.07 443.452 124.398 442.8 124.518 441.977H120.897V440.714H126.211V441.949C126.109 442.698 125.841 443.387 125.406 444.016C124.981 444.645 124.421 445.149 123.727 445.528C123.043 445.898 122.28 446.083 121.438 446.083C120.532 446.083 119.704 445.875 118.955 445.459C118.206 445.033 117.609 444.446 117.165 443.697C116.731 442.948 116.513 442.102 116.513 441.158C116.513 440.215 116.731 439.369 117.165 438.619C117.609 437.87 118.206 437.288 118.955 436.871C119.713 436.446 120.541 436.233 121.438 436.233C122.465 436.233 123.376 436.488 124.171 436.996C124.976 437.496 125.559 438.208 125.919 439.133H124.019ZM129.352 439.466C129.583 439.077 129.889 438.777 130.268 438.564C130.656 438.342 131.114 438.231 131.641 438.231V439.868H131.239C130.619 439.868 130.148 440.025 129.824 440.34C129.509 440.654 129.352 441.2 129.352 441.977V446H127.771V438.356H129.352V439.466ZM132.568 442.143C132.568 441.376 132.725 440.696 133.04 440.104C133.363 439.512 133.798 439.054 134.344 438.73C134.899 438.397 135.509 438.231 136.175 438.231C136.776 438.231 137.299 438.351 137.743 438.592C138.196 438.823 138.557 439.114 138.825 439.466V438.356H140.42V446H138.825V444.862C138.557 445.223 138.191 445.524 137.729 445.764C137.266 446.005 136.739 446.125 136.147 446.125C135.491 446.125 134.889 445.958 134.344 445.625C133.798 445.283 133.363 444.812 133.04 444.21C132.725 443.6 132.568 442.911 132.568 442.143ZM138.825 442.171C138.825 441.644 138.714 441.186 138.492 440.797C138.279 440.409 137.997 440.113 137.646 439.91C137.294 439.706 136.915 439.604 136.508 439.604C136.101 439.604 135.722 439.706 135.37 439.91C135.019 440.104 134.732 440.395 134.51 440.784C134.297 441.163 134.191 441.616 134.191 442.143C134.191 442.67 134.297 443.133 134.51 443.531C134.732 443.928 135.019 444.233 135.37 444.446C135.731 444.65 136.11 444.751 136.508 444.751C136.915 444.751 137.294 444.65 137.646 444.446C137.997 444.243 138.279 443.947 138.492 443.558C138.714 443.161 138.825 442.698 138.825 442.171ZM144.079 439.48C144.347 439.128 144.713 438.832 145.175 438.592C145.638 438.351 146.16 438.231 146.743 438.231C147.409 438.231 148.014 438.397 148.56 438.73C149.115 439.054 149.55 439.512 149.864 440.104C150.179 440.696 150.336 441.376 150.336 442.143C150.336 442.911 150.179 443.6 149.864 444.21C149.55 444.812 149.115 445.283 148.56 445.625C148.014 445.958 147.409 446.125 146.743 446.125C146.16 446.125 145.642 446.009 145.189 445.778C144.736 445.538 144.366 445.242 144.079 444.89V449.635H142.498V438.356H144.079V439.48ZM148.727 442.143C148.727 441.616 148.616 441.163 148.394 440.784C148.181 440.395 147.894 440.104 147.534 439.91C147.182 439.706 146.803 439.604 146.396 439.604C145.998 439.604 145.619 439.706 145.258 439.91C144.907 440.113 144.62 440.409 144.398 440.797C144.185 441.186 144.079 441.644 144.079 442.171C144.079 442.698 144.185 443.161 144.398 443.558C144.62 443.947 144.907 444.243 145.258 444.446C145.619 444.65 145.998 444.751 146.396 444.751C146.803 444.751 147.182 444.65 147.534 444.446C147.894 444.233 148.181 443.928 148.394 443.531C148.616 443.133 148.727 442.67 148.727 442.143ZM155.854 438.231C156.437 438.231 156.954 438.356 157.408 438.606C157.87 438.855 158.231 439.225 158.49 439.715C158.758 440.206 158.892 440.797 158.892 441.491V446H157.324V441.727C157.324 441.043 157.153 440.52 156.811 440.159C156.469 439.789 156.002 439.604 155.41 439.604C154.818 439.604 154.346 439.789 153.995 440.159C153.653 440.52 153.482 441.043 153.482 441.727V446H151.9V435.734H153.482V439.244C153.75 438.92 154.087 438.67 154.494 438.495C154.91 438.319 155.364 438.231 155.854 438.231ZM161.714 437.343C161.427 437.343 161.187 437.246 160.993 437.052C160.799 436.857 160.701 436.617 160.701 436.33C160.701 436.044 160.799 435.803 160.993 435.609C161.187 435.415 161.427 435.318 161.714 435.318C161.992 435.318 162.227 435.415 162.422 435.609C162.616 435.803 162.713 436.044 162.713 436.33C162.713 436.617 162.616 436.857 162.422 437.052C162.227 437.246 161.992 437.343 161.714 437.343ZM162.491 438.356V446H160.91V438.356H162.491ZM164.04 442.171C164.04 441.385 164.198 440.696 164.512 440.104C164.836 439.503 165.28 439.04 165.844 438.716C166.408 438.393 167.055 438.231 167.786 438.231C168.711 438.231 169.474 438.453 170.075 438.897C170.686 439.332 171.097 439.956 171.31 440.77H169.604C169.465 440.391 169.243 440.095 168.938 439.882C168.632 439.669 168.249 439.563 167.786 439.563C167.139 439.563 166.621 439.794 166.232 440.256C165.853 440.71 165.664 441.348 165.664 442.171C165.664 442.994 165.853 443.637 166.232 444.099C166.621 444.562 167.139 444.793 167.786 444.793C168.702 444.793 169.308 444.391 169.604 443.586H171.31C171.088 444.363 170.672 444.983 170.061 445.445C169.451 445.898 168.693 446.125 167.786 446.125C167.055 446.125 166.408 445.963 165.844 445.639C165.28 445.306 164.836 444.844 164.512 444.252C164.198 443.651 164.04 442.957 164.04 442.171ZM178.071 437.634V440.465H181.401V441.755H178.071V444.71H181.817V446H176.49V436.344H181.817V437.634H178.071ZM185.347 439.466C185.578 439.077 185.883 438.777 186.262 438.564C186.651 438.342 187.109 438.231 187.636 438.231V439.868H187.234C186.614 439.868 186.142 440.025 185.819 440.34C185.504 440.654 185.347 441.2 185.347 441.977V446H183.765V438.356H185.347V439.466ZM188.563 442.143C188.563 441.376 188.72 440.696 189.034 440.104C189.358 439.512 189.793 439.054 190.338 438.73C190.893 438.397 191.504 438.231 192.17 438.231C192.771 438.231 193.293 438.351 193.737 438.592C194.19 438.823 194.551 439.114 194.819 439.466V438.356H196.415V446H194.819V444.862C194.551 445.223 194.186 445.524 193.723 445.764C193.261 446.005 192.734 446.125 192.142 446.125C191.485 446.125 190.884 445.958 190.338 445.625C189.793 445.283 189.358 444.812 189.034 444.21C188.72 443.6 188.563 442.911 188.563 442.143ZM194.819 442.171C194.819 441.644 194.708 441.186 194.486 440.797C194.274 440.409 193.992 440.113 193.64 439.91C193.289 439.706 192.91 439.604 192.503 439.604C192.096 439.604 191.716 439.706 191.365 439.91C191.013 440.104 190.727 440.395 190.505 440.784C190.292 441.163 190.186 441.616 190.186 442.143C190.186 442.67 190.292 443.133 190.505 443.531C190.727 443.928 191.013 444.233 191.365 444.446C191.726 444.65 192.105 444.751 192.503 444.751C192.91 444.751 193.289 444.65 193.64 444.446C193.992 444.243 194.274 443.947 194.486 443.558C194.708 443.161 194.819 442.698 194.819 442.171ZM209.796 436.358V446H208.214V441.783H203.678V446H202.096V436.358H203.678V440.492H208.214V436.358H209.796ZM212.682 437.343C212.396 437.343 212.155 437.246 211.961 437.052C211.767 436.857 211.67 436.617 211.67 436.33C211.67 436.044 211.767 435.803 211.961 435.609C212.155 435.415 212.396 435.318 212.682 435.318C212.96 435.318 213.196 435.415 213.39 435.609C213.584 435.803 213.681 436.044 213.681 436.33C213.681 436.617 213.584 436.857 213.39 437.052C213.196 437.246 212.96 437.343 212.682 437.343ZM213.459 438.356V446H211.878V438.356H213.459ZM217.117 435.734V446H215.536V435.734H217.117ZM220.775 435.734V446H219.194V435.734H220.775ZM228.023 436.358V442.504C228.023 443.235 228.213 443.785 228.592 444.155C228.981 444.525 229.517 444.71 230.201 444.71C230.895 444.71 231.432 444.525 231.811 444.155C232.199 443.785 232.393 443.235 232.393 442.504V436.358H233.975V442.476C233.975 443.262 233.804 443.928 233.462 444.474C233.119 445.02 232.662 445.427 232.088 445.695C231.515 445.963 230.881 446.097 230.188 446.097C229.494 446.097 228.86 445.963 228.287 445.695C227.723 445.427 227.274 445.02 226.941 444.474C226.608 443.928 226.442 443.262 226.442 442.476V436.358H228.023ZM239.891 438.231C240.492 438.231 241.029 438.356 241.5 438.606C241.981 438.855 242.356 439.225 242.624 439.715C242.892 440.206 243.026 440.797 243.026 441.491V446H241.459V441.727C241.459 441.043 241.288 440.52 240.945 440.159C240.603 439.789 240.136 439.604 239.544 439.604C238.952 439.604 238.48 439.789 238.129 440.159C237.787 440.52 237.616 441.043 237.616 441.727V446H236.034V438.356H237.616V439.23C237.875 438.915 238.203 438.67 238.601 438.495C239.008 438.319 239.438 438.231 239.891 438.231ZM245.848 437.343C245.562 437.343 245.321 437.246 245.127 437.052C244.933 436.857 244.836 436.617 244.836 436.33C244.836 436.044 244.933 435.803 245.127 435.609C245.321 435.415 245.562 435.318 245.848 435.318C246.126 435.318 246.362 435.415 246.556 435.609C246.75 435.803 246.847 436.044 246.847 436.33C246.847 436.617 246.75 436.857 246.556 437.052C246.362 437.246 246.126 437.343 245.848 437.343ZM246.625 438.356V446H245.044V438.356H246.625ZM251.657 444.585L253.821 438.356H255.5L252.586 446H250.699L247.8 438.356H249.492L251.657 444.585ZM263.701 441.991C263.701 442.277 263.683 442.536 263.646 442.768H257.805C257.851 443.378 258.078 443.868 258.485 444.238C258.892 444.608 259.391 444.793 259.983 444.793C260.834 444.793 261.435 444.437 261.787 443.725H263.493C263.262 444.428 262.841 445.006 262.231 445.459C261.629 445.903 260.88 446.125 259.983 446.125C259.252 446.125 258.596 445.963 258.013 445.639C257.44 445.306 256.986 444.844 256.654 444.252C256.33 443.651 256.168 442.957 256.168 442.171C256.168 441.385 256.325 440.696 256.64 440.104C256.963 439.503 257.412 439.04 257.985 438.716C258.568 438.393 259.234 438.231 259.983 438.231C260.705 438.231 261.347 438.388 261.912 438.703C262.476 439.017 262.915 439.461 263.229 440.034C263.544 440.599 263.701 441.251 263.701 441.991ZM262.05 441.491C262.041 440.908 261.833 440.441 261.426 440.09C261.019 439.739 260.515 439.563 259.914 439.563C259.368 439.563 258.901 439.739 258.513 440.09C258.124 440.432 257.893 440.899 257.819 441.491H262.05ZM266.839 439.466C267.07 439.077 267.376 438.777 267.755 438.564C268.143 438.342 268.601 438.231 269.128 438.231V439.868H268.726C268.106 439.868 267.635 440.025 267.311 440.34C266.996 440.654 266.839 441.2 266.839 441.977V446H265.258V438.356H266.839V439.466ZM273.357 446.125C272.756 446.125 272.214 446.018 271.734 445.806C271.262 445.584 270.887 445.288 270.61 444.918C270.332 444.539 270.184 444.118 270.166 443.655H271.803C271.831 443.979 271.983 444.252 272.261 444.474C272.547 444.687 272.904 444.793 273.329 444.793C273.773 444.793 274.115 444.71 274.356 444.543C274.605 444.368 274.73 444.146 274.73 443.877C274.73 443.591 274.591 443.378 274.314 443.239C274.046 443.1 273.616 442.948 273.024 442.781C272.45 442.624 271.983 442.472 271.623 442.324C271.262 442.176 270.947 441.949 270.679 441.644C270.42 441.339 270.291 440.936 270.291 440.437C270.291 440.03 270.411 439.66 270.651 439.327C270.892 438.985 271.234 438.716 271.678 438.522C272.131 438.328 272.649 438.231 273.232 438.231C274.101 438.231 274.8 438.453 275.327 438.897C275.863 439.332 276.15 439.928 276.187 440.687H274.605C274.578 440.344 274.439 440.071 274.189 439.868C273.939 439.665 273.602 439.563 273.176 439.563C272.76 439.563 272.441 439.641 272.219 439.799C271.997 439.956 271.886 440.164 271.886 440.423C271.886 440.626 271.96 440.797 272.108 440.936C272.256 441.075 272.436 441.186 272.649 441.269C272.862 441.343 273.176 441.44 273.593 441.561C274.147 441.709 274.601 441.861 274.952 442.018C275.313 442.166 275.623 442.388 275.882 442.684C276.141 442.98 276.275 443.373 276.284 443.864C276.284 444.298 276.164 444.687 275.923 445.029C275.683 445.371 275.341 445.639 274.897 445.834C274.462 446.028 273.949 446.125 273.357 446.125ZM278.798 437.343C278.511 437.343 278.27 437.246 278.076 437.052C277.882 436.857 277.785 436.617 277.785 436.33C277.785 436.044 277.882 435.803 278.076 435.609C278.27 435.415 278.511 435.318 278.798 435.318C279.075 435.318 279.311 435.415 279.505 435.609C279.699 435.803 279.796 436.044 279.796 436.33C279.796 436.617 279.699 436.857 279.505 437.052C279.311 437.246 279.075 437.343 278.798 437.343ZM279.574 438.356V446H277.993V438.356H279.574ZM283.496 439.646V443.877C283.496 444.164 283.561 444.372 283.69 444.502C283.829 444.622 284.06 444.682 284.384 444.682H285.355V446H284.106C283.394 446 282.849 445.834 282.469 445.501C282.09 445.168 281.901 444.627 281.901 443.877V439.646H280.999V438.356H281.901V436.455H283.496V438.356H285.355V439.646H283.496ZM293.694 438.356L289.005 449.593H287.368L288.921 445.875L285.911 438.356H287.673L289.823 444.183L292.057 438.356H293.694ZM120.19 457.358C121.216 457.358 122.114 457.557 122.881 457.955C123.658 458.343 124.255 458.907 124.671 459.647C125.096 460.378 125.309 461.233 125.309 462.214C125.309 463.194 125.096 464.045 124.671 464.766C124.255 465.488 123.658 466.043 122.881 466.431C122.114 466.81 121.216 467 120.19 467H117.041V457.358H120.19ZM120.19 465.71C121.318 465.71 122.183 465.405 122.784 464.794C123.385 464.184 123.686 463.324 123.686 462.214C123.686 461.095 123.385 460.221 122.784 459.592C122.183 458.963 121.318 458.648 120.19 458.648H118.622V465.71H120.19ZM133.883 462.991C133.883 463.277 133.864 463.536 133.827 463.768H127.986C128.033 464.378 128.259 464.868 128.666 465.238C129.073 465.608 129.573 465.793 130.164 465.793C131.015 465.793 131.617 465.437 131.968 464.725H133.674C133.443 465.428 133.022 466.006 132.412 466.459C131.811 466.903 131.062 467.125 130.164 467.125C129.434 467.125 128.777 466.963 128.194 466.639C127.621 466.306 127.168 465.844 126.835 465.252C126.511 464.651 126.349 463.957 126.349 463.171C126.349 462.385 126.507 461.696 126.821 461.104C127.145 460.503 127.593 460.04 128.167 459.716C128.749 459.393 129.415 459.231 130.164 459.231C130.886 459.231 131.529 459.388 132.093 459.703C132.657 460.017 133.096 460.461 133.411 461.034C133.725 461.599 133.883 462.251 133.883 462.991ZM132.232 462.491C132.222 461.908 132.014 461.441 131.607 461.09C131.2 460.739 130.696 460.563 130.095 460.563C129.549 460.563 129.082 460.739 128.694 461.09C128.305 461.432 128.074 461.899 128 462.491H132.232ZM139.393 459.231C139.976 459.231 140.493 459.356 140.947 459.606C141.409 459.855 141.77 460.225 142.029 460.715C142.297 461.206 142.431 461.797 142.431 462.491V467H140.863V462.727C140.863 462.043 140.692 461.52 140.35 461.159C140.008 460.789 139.541 460.604 138.949 460.604C138.357 460.604 137.885 460.789 137.534 461.159C137.192 461.52 137.02 462.043 137.02 462.727V467H135.439V456.734H137.02V460.244C137.289 459.92 137.626 459.67 138.033 459.495C138.449 459.319 138.903 459.231 139.393 459.231ZM146.03 460.466C146.261 460.077 146.566 459.777 146.946 459.564C147.334 459.342 147.792 459.231 148.319 459.231V460.868H147.917C147.297 460.868 146.825 461.025 146.502 461.34C146.187 461.654 146.03 462.2 146.03 462.977V467H144.448V459.356H146.03V460.466ZM149.246 463.143C149.246 462.376 149.403 461.696 149.717 461.104C150.041 460.512 150.476 460.054 151.022 459.73C151.576 459.397 152.187 459.231 152.853 459.231C153.454 459.231 153.977 459.351 154.42 459.592C154.874 459.823 155.234 460.114 155.503 460.466V459.356H157.098V467H155.503V465.862C155.234 466.223 154.869 466.524 154.407 466.764C153.944 467.005 153.417 467.125 152.825 467.125C152.168 467.125 151.567 466.958 151.022 466.625C150.476 466.283 150.041 465.812 149.717 465.21C149.403 464.6 149.246 463.911 149.246 463.143ZM155.503 463.171C155.503 462.644 155.392 462.186 155.17 461.797C154.957 461.409 154.675 461.113 154.323 460.91C153.972 460.706 153.593 460.604 153.186 460.604C152.779 460.604 152.4 460.706 152.048 460.91C151.697 461.104 151.41 461.395 151.188 461.784C150.975 462.163 150.869 462.616 150.869 463.143C150.869 463.67 150.975 464.133 151.188 464.531C151.41 464.928 151.697 465.233 152.048 465.446C152.409 465.65 152.788 465.751 153.186 465.751C153.593 465.751 153.972 465.65 154.323 465.446C154.675 465.243 154.957 464.947 155.17 464.558C155.392 464.161 155.503 463.698 155.503 463.171ZM158.648 463.143C158.648 462.376 158.805 461.696 159.12 461.104C159.444 460.512 159.878 460.054 160.424 459.73C160.979 459.397 161.594 459.231 162.269 459.231C162.769 459.231 163.259 459.342 163.74 459.564C164.23 459.777 164.618 460.063 164.905 460.424V456.734H166.5V467H164.905V465.849C164.646 466.218 164.285 466.524 163.823 466.764C163.37 467.005 162.847 467.125 162.255 467.125C161.589 467.125 160.979 466.958 160.424 466.625C159.878 466.283 159.444 465.812 159.12 465.21C158.805 464.6 158.648 463.911 158.648 463.143ZM164.905 463.171C164.905 462.644 164.794 462.186 164.572 461.797C164.359 461.409 164.077 461.113 163.726 460.91C163.374 460.706 162.995 460.604 162.588 460.604C162.181 460.604 161.802 460.706 161.451 460.91C161.099 461.104 160.812 461.395 160.59 461.784C160.378 462.163 160.271 462.616 160.271 463.143C160.271 463.67 160.378 464.133 160.59 464.531C160.812 464.928 161.099 465.233 161.451 465.446C161.811 465.65 162.19 465.751 162.588 465.751C162.995 465.751 163.374 465.65 163.726 465.446C164.077 465.243 164.359 464.947 164.572 464.558C164.794 464.161 164.905 463.698 164.905 463.171ZM175.501 459.356V467H173.919V466.098C173.669 466.413 173.341 466.662 172.934 466.847C172.536 467.023 172.111 467.111 171.658 467.111C171.056 467.111 170.515 466.986 170.034 466.736C169.563 466.487 169.188 466.117 168.911 465.627C168.643 465.136 168.508 464.544 168.508 463.851V459.356H170.076V463.615C170.076 464.299 170.247 464.827 170.589 465.196C170.932 465.557 171.399 465.738 171.991 465.738C172.583 465.738 173.05 465.557 173.392 465.196C173.743 464.827 173.919 464.299 173.919 463.615V459.356H175.501ZM181.444 459.231C182.045 459.231 182.582 459.356 183.053 459.606C183.534 459.855 183.909 460.225 184.177 460.715C184.445 461.206 184.579 461.797 184.579 462.491V467H183.012V462.727C183.012 462.043 182.841 461.52 182.498 461.159C182.156 460.789 181.689 460.604 181.097 460.604C180.505 460.604 180.034 460.789 179.682 461.159C179.34 461.52 179.169 462.043 179.169 462.727V467H177.587V459.356H179.169V460.23C179.428 459.915 179.756 459.67 180.154 459.495C180.561 459.319 180.991 459.231 181.444 459.231ZM188.331 465.099L186.652 468.928H185.626L186.611 465.099H188.331ZM194.884 457.358V463.504C194.884 464.235 195.074 464.785 195.453 465.155C195.842 465.525 196.378 465.71 197.063 465.71C197.756 465.71 198.293 465.525 198.672 465.155C199.06 464.785 199.255 464.235 199.255 463.504V457.358H200.836V463.476C200.836 464.262 200.665 464.928 200.323 465.474C199.981 466.02 199.523 466.427 198.949 466.695C198.376 466.963 197.742 467.097 197.049 467.097C196.355 467.097 195.721 466.963 195.148 466.695C194.584 466.427 194.135 466.02 193.802 465.474C193.469 464.928 193.303 464.262 193.303 463.476V457.358H194.884ZM204.74 460.646V464.877C204.74 465.164 204.805 465.372 204.935 465.502C205.073 465.622 205.305 465.682 205.628 465.682H206.6V467H205.351C204.639 467 204.093 466.834 203.714 466.501C203.335 466.168 203.145 465.627 203.145 464.877V460.646H202.243V459.356H203.145V457.455H204.74V459.356H206.6V460.646H204.74ZM209.902 460.646V464.877C209.902 465.164 209.967 465.372 210.097 465.502C210.235 465.622 210.467 465.682 210.79 465.682H211.761V467H210.513C209.801 467 209.255 466.834 208.876 466.501C208.497 466.168 208.307 465.627 208.307 464.877V460.646H207.405V459.356H208.307V457.455H209.902V459.356H211.761V460.646H209.902ZM212.692 463.143C212.692 462.376 212.849 461.696 213.164 461.104C213.487 460.512 213.922 460.054 214.468 459.73C215.023 459.397 215.633 459.231 216.299 459.231C216.9 459.231 217.423 459.351 217.867 459.592C218.32 459.823 218.681 460.114 218.949 460.466V459.356H220.544V467H218.949V465.862C218.681 466.223 218.315 466.524 217.853 466.764C217.39 467.005 216.863 467.125 216.271 467.125C215.614 467.125 215.013 466.958 214.468 466.625C213.922 466.283 213.487 465.812 213.164 465.21C212.849 464.6 212.692 463.911 212.692 463.143ZM218.949 463.171C218.949 462.644 218.838 462.186 218.616 461.797C218.403 461.409 218.121 461.113 217.769 460.91C217.418 460.706 217.039 460.604 216.632 460.604C216.225 460.604 215.846 460.706 215.494 460.91C215.143 461.104 214.856 461.395 214.634 461.784C214.421 462.163 214.315 462.616 214.315 463.143C214.315 463.67 214.421 464.133 214.634 464.531C214.856 464.928 215.143 465.233 215.494 465.446C215.855 465.65 216.234 465.751 216.632 465.751C217.039 465.751 217.418 465.65 217.769 465.446C218.121 465.243 218.403 464.947 218.616 464.558C218.838 464.161 218.949 463.698 218.949 463.171ZM224.203 460.466C224.434 460.077 224.739 459.777 225.119 459.564C225.507 459.342 225.965 459.231 226.492 459.231V460.868H226.09C225.47 460.868 224.998 461.025 224.675 461.34C224.36 461.654 224.203 462.2 224.203 462.977V467H222.621V459.356H224.203V460.466ZM227.419 463.143C227.419 462.376 227.576 461.696 227.89 461.104C228.214 460.512 228.649 460.054 229.195 459.73C229.749 459.397 230.36 459.231 231.026 459.231C231.627 459.231 232.15 459.351 232.593 459.592C233.047 459.823 233.407 460.114 233.676 460.466V459.356H235.271V467H233.676V465.862C233.407 466.223 233.042 466.524 232.58 466.764C232.117 467.005 231.59 467.125 230.998 467.125C230.341 467.125 229.74 466.958 229.195 466.625C228.649 466.283 228.214 465.812 227.89 465.21C227.576 464.6 227.419 463.911 227.419 463.143ZM233.676 463.171C233.676 462.644 233.565 462.186 233.343 461.797C233.13 461.409 232.848 461.113 232.496 460.91C232.145 460.706 231.766 460.604 231.359 460.604C230.952 460.604 230.573 460.706 230.221 460.91C229.87 461.104 229.583 461.395 229.361 461.784C229.148 462.163 229.042 462.616 229.042 463.143C229.042 463.67 229.148 464.133 229.361 464.531C229.583 464.928 229.87 465.233 230.221 465.446C230.582 465.65 230.961 465.751 231.359 465.751C231.766 465.751 232.145 465.65 232.496 465.446C232.848 465.243 233.13 464.947 233.343 464.558C233.565 464.161 233.676 463.698 233.676 463.171ZM240.373 463.185L243.897 467H241.76L238.93 463.712V467H237.348V456.734H238.93V462.699L241.705 459.356H243.897L240.373 463.185ZM248.984 459.231C249.567 459.231 250.085 459.356 250.538 459.606C251 459.855 251.361 460.225 251.62 460.715C251.888 461.206 252.022 461.797 252.022 462.491V467H250.455V462.727C250.455 462.043 250.284 461.52 249.941 461.159C249.599 460.789 249.132 460.604 248.54 460.604C247.948 460.604 247.476 460.789 247.125 461.159C246.783 461.52 246.612 462.043 246.612 462.727V467H245.03V456.734H246.612V460.244C246.88 459.92 247.218 459.67 247.624 459.495C248.041 459.319 248.494 459.231 248.984 459.231ZM253.513 463.143C253.513 462.376 253.67 461.696 253.984 461.104C254.308 460.512 254.743 460.054 255.288 459.73C255.843 459.397 256.454 459.231 257.12 459.231C257.721 459.231 258.243 459.351 258.687 459.592C259.14 459.823 259.501 460.114 259.769 460.466V459.356H261.365V467H259.769V465.862C259.501 466.223 259.136 466.524 258.673 466.764C258.211 467.005 257.684 467.125 257.092 467.125C256.435 467.125 255.834 466.958 255.288 466.625C254.743 466.283 254.308 465.812 253.984 465.21C253.67 464.6 253.513 463.911 253.513 463.143ZM259.769 463.171C259.769 462.644 259.658 462.186 259.436 461.797C259.224 461.409 258.942 461.113 258.59 460.91C258.239 460.706 257.859 460.604 257.453 460.604C257.046 460.604 256.666 460.706 256.315 460.91C255.963 461.104 255.677 461.395 255.455 461.784C255.242 462.163 255.136 462.616 255.136 463.143C255.136 463.67 255.242 464.133 255.455 464.531C255.677 464.928 255.963 465.233 256.315 465.446C256.676 465.65 257.055 465.751 257.453 465.751C257.859 465.751 258.239 465.65 258.59 465.446C258.942 465.243 259.224 464.947 259.436 464.558C259.658 464.161 259.769 463.698 259.769 463.171ZM267.299 459.231C267.9 459.231 268.437 459.356 268.908 459.606C269.389 459.855 269.764 460.225 270.032 460.715C270.3 461.206 270.434 461.797 270.434 462.491V467H268.867V462.727C268.867 462.043 268.696 461.52 268.353 461.159C268.011 460.789 267.544 460.604 266.952 460.604C266.36 460.604 265.888 460.789 265.537 461.159C265.195 461.52 265.024 462.043 265.024 462.727V467H263.442V459.356H265.024V460.23C265.283 459.915 265.611 459.67 266.009 459.495C266.416 459.319 266.846 459.231 267.299 459.231ZM271.924 463.143C271.924 462.376 272.082 461.696 272.396 461.104C272.72 460.512 273.155 460.054 273.7 459.73C274.255 459.397 274.87 459.231 275.545 459.231C276.045 459.231 276.535 459.342 277.016 459.564C277.506 459.777 277.895 460.063 278.181 460.424V456.734H279.777V467H278.181V465.849C277.922 466.218 277.562 466.524 277.099 466.764C276.646 467.005 276.123 467.125 275.532 467.125C274.866 467.125 274.255 466.958 273.7 466.625C273.155 466.283 272.72 465.812 272.396 465.21C272.082 464.6 271.924 463.911 271.924 463.143ZM278.181 463.171C278.181 462.644 278.07 462.186 277.848 461.797C277.636 461.409 277.354 461.113 277.002 460.91C276.651 460.706 276.271 460.604 275.865 460.604C275.458 460.604 275.078 460.706 274.727 460.91C274.375 461.104 274.089 461.395 273.867 461.784C273.654 462.163 273.548 462.616 273.548 463.143C273.548 463.67 273.654 464.133 273.867 464.531C274.089 464.928 274.375 465.233 274.727 465.446C275.088 465.65 275.467 465.751 275.865 465.751C276.271 465.751 276.651 465.65 277.002 465.446C277.354 465.243 277.636 464.947 277.848 464.558C278.07 464.161 278.181 463.698 278.181 463.171Z" fill="white" fill-opacity="0.51"/>
<path d="M116.241 612.538L114.307 609.75H116.15L117.186 611.286L118.21 609.75H119.996L118.062 612.504L120.235 615.633H118.392L117.163 613.779L115.934 615.633H114.125L116.241 612.538" fill="#EE2922"/>
<path d="M127.893 614.587H122.146V613.369H127.893V614.587ZM127.893 612.151H122.146V610.934H127.893V612.151Z" fill="white"/>
<path d="M130.681 609.75H132.296V615.633H130.681V609.75ZM132.296 608.84H130.681V607.508H132.296V608.84Z" fill="white"/>
<path d="M133.342 609.75H134.879V610.57H134.913C135.322 609.909 136.028 609.591 136.711 609.591C138.429 609.591 138.861 610.558 138.861 612.015V615.633H137.245V612.31C137.245 611.343 136.961 610.865 136.21 610.865C135.334 610.865 134.958 611.354 134.958 612.549V615.633H133.342V609.75" fill="white"/>
<path d="M142.651 610.808C141.593 610.808 141.229 611.719 141.229 612.686C141.229 613.608 141.65 614.575 142.651 614.575C143.721 614.575 144.04 613.642 144.04 612.675C144.04 611.719 143.698 610.808 142.651 610.808ZM144.062 614.882H144.04C143.664 615.519 143.004 615.793 142.253 615.793C140.478 615.793 139.613 614.268 139.613 612.64C139.613 611.059 140.489 609.591 142.219 609.591C142.913 609.591 143.596 609.887 143.971 610.467H143.96H143.983V607.508H145.598V615.633H144.062V614.882" fill="white"/>
<path d="M150.548 612.06C150.4 611.241 150.047 610.808 149.262 610.808C148.238 610.808 147.942 611.605 147.919 612.06H150.548ZM147.919 613.084C147.965 614.108 148.465 614.575 149.364 614.575C150.013 614.575 150.536 614.177 150.639 613.813H152.061C151.606 615.201 150.639 615.793 149.307 615.793C147.452 615.793 146.303 614.518 146.303 612.697C146.303 610.934 147.521 609.591 149.307 609.591C151.31 609.591 152.278 611.275 152.163 613.084H147.919Z" fill="white"/>
<path d="M157.261 612.709C157.261 611.776 156.885 610.808 155.85 610.808C154.792 610.808 154.45 611.753 154.45 612.709C154.45 613.665 154.814 614.575 155.861 614.575C156.92 614.575 157.261 613.665 157.261 612.709ZM152.891 609.75H154.427V610.501H154.45C154.837 609.876 155.474 609.591 156.203 609.591C158.046 609.591 158.877 611.082 158.877 612.754C158.877 614.325 158.012 615.793 156.294 615.793C155.588 615.793 154.917 615.485 154.53 614.905H154.507V617.704H152.891V609.75" fill="white"/>
<path d="M163.577 612.06C163.428 611.241 163.076 610.808 162.291 610.808C161.266 610.808 160.971 611.605 160.948 612.06H163.577ZM160.948 613.084C160.993 614.108 161.494 614.575 162.393 614.575C163.042 614.575 163.565 614.177 163.668 613.813H165.09C164.635 615.201 163.668 615.793 162.336 615.793C160.481 615.793 159.332 614.518 159.332 612.697C159.332 610.934 160.549 609.591 162.336 609.591C164.339 609.591 165.306 611.275 165.192 613.084H160.948Z" fill="white"/>
<path d="M165.92 609.75H167.456V610.57H167.49C167.9 609.909 168.605 609.591 169.288 609.591C171.007 609.591 171.439 610.558 171.439 612.015V615.633H169.823V612.31C169.823 611.343 169.539 610.865 168.788 610.865C167.912 610.865 167.536 611.354 167.536 612.549V615.633H165.92V609.75" fill="white"/>
<path d="M175.228 610.808C174.17 610.808 173.805 611.719 173.805 612.686C173.805 613.608 174.226 614.575 175.228 614.575C176.297 614.575 176.616 613.642 176.616 612.675C176.616 611.719 176.275 610.808 175.228 610.808ZM176.639 614.882H176.616C176.241 615.519 175.581 615.793 174.829 615.793C173.054 615.793 172.189 614.268 172.189 612.64C172.189 611.059 173.066 609.591 174.795 609.591C175.49 609.591 176.172 609.887 176.548 610.467H176.536H176.559V607.508H178.175V615.633H176.639V614.882" fill="white"/>
<path d="M183.124 612.06C182.976 611.241 182.623 610.808 181.838 610.808C180.814 610.808 180.518 611.605 180.495 612.06H183.124ZM180.495 613.084C180.541 614.108 181.041 614.575 181.94 614.575C182.589 614.575 183.113 614.177 183.215 613.813H184.637C184.182 615.201 183.215 615.793 181.883 615.793C180.029 615.793 178.879 614.518 178.879 612.697C178.879 610.934 180.097 609.591 181.883 609.591C183.886 609.591 184.854 611.275 184.74 613.084H180.495Z" fill="white"/>
<path d="M185.468 609.75H187.004V610.57H187.038C187.448 609.909 188.153 609.591 188.836 609.591C190.554 609.591 190.987 610.558 190.987 612.015V615.633H189.371V612.31C189.371 611.343 189.086 610.865 188.336 610.865C187.459 610.865 187.084 611.354 187.084 612.549V615.633H185.468V609.75" fill="white"/>
<path d="M194.036 609.75H195.219V610.831H194.036V613.744C194.036 614.291 194.172 614.427 194.719 614.427C194.889 614.427 195.049 614.416 195.219 614.381V615.645C194.946 615.69 194.593 615.702 194.275 615.702C193.285 615.702 192.42 615.474 192.42 614.302V610.831H191.441V609.75H192.42V607.986H194.036V609.75" fill="white"/>
<path d="M195.811 607.508H197.427V615.633H195.811V607.508Z" fill="white"/>
<path d="M201.376 616.373C201.023 617.318 200.465 617.704 199.35 617.704C199.02 617.704 198.69 617.682 198.36 617.647V616.316C198.667 616.339 198.986 616.384 199.305 616.373C199.862 616.316 200.044 615.736 199.862 615.269L197.791 609.75H199.521L200.852 613.779H200.875L202.161 609.75H203.834L201.376 616.373Z" fill="white"/>
<path d="M209.944 614.575C211.047 614.575 211.377 613.631 211.377 612.697C211.377 611.753 211.047 610.808 209.944 610.808C208.851 610.808 208.521 611.753 208.521 612.697C208.521 613.631 208.851 614.575 209.944 614.575ZM209.944 609.591C211.798 609.591 212.993 610.82 212.993 612.697C212.993 614.564 211.798 615.793 209.944 615.793C208.1 615.793 206.905 614.564 206.905 612.697C206.905 610.82 208.1 609.591 209.944 609.591Z" fill="white"/>
<path d="M213.584 609.75H215.121V610.843H215.143C215.439 610.103 216.236 609.591 217.021 609.591C217.135 609.591 217.271 609.614 217.374 609.648V611.15C217.226 611.116 216.987 611.093 216.793 611.093C215.61 611.093 215.2 611.946 215.2 612.982V615.633H213.584V609.75Z" fill="white"/>
<path d="M221.903 612.618C221.903 611.662 221.573 610.808 220.526 610.808C219.615 610.808 219.217 611.605 219.217 612.481C219.217 613.323 219.536 614.245 220.526 614.245C221.447 614.245 221.903 613.46 221.903 612.618ZM223.439 615.258C223.439 616.225 223.098 617.864 220.389 617.864C219.228 617.864 217.874 617.318 217.795 615.975H219.399C219.547 616.578 220.036 616.783 220.605 616.783C221.505 616.783 221.914 616.168 221.903 615.326V614.552H221.88C221.527 615.167 220.822 615.463 220.116 615.463C218.352 615.463 217.601 614.12 217.601 612.504C217.601 610.979 218.477 609.591 220.128 609.591C220.901 609.591 221.493 609.853 221.88 610.535H221.903V609.75H223.439V615.258" fill="white"/>
<path d="M227.945 612.754C227.672 612.993 227.103 613.005 226.602 613.096C226.101 613.198 225.646 613.369 225.646 613.961C225.646 614.564 226.113 614.712 226.636 614.712C227.899 614.712 227.945 613.71 227.945 613.357V612.754ZM224.213 611.559C224.304 610.046 225.658 609.591 226.978 609.591C228.15 609.591 229.561 609.852 229.561 611.264V614.324C229.561 614.859 229.618 615.394 229.766 615.633H228.127C228.07 615.451 228.025 615.258 228.013 615.064C227.501 615.599 226.75 615.793 226.033 615.793C224.918 615.793 224.03 615.235 224.03 614.029C224.03 612.697 225.032 612.379 226.033 612.242C227.023 612.094 227.945 612.129 227.945 611.468C227.945 610.774 227.467 610.672 226.898 610.672C226.283 610.672 225.885 610.922 225.828 611.559H224.213Z" fill="white"/>
<path d="M230.584 609.75H232.12V610.57H232.155C232.564 609.909 233.27 609.591 233.953 609.591C235.671 609.591 236.103 610.558 236.103 612.015V615.633H234.487V612.31C234.487 611.343 234.203 610.865 233.452 610.865C232.576 610.865 232.2 611.354 232.2 612.549V615.633H230.584V609.75Z" fill="white"/>
<path d="M236.922 609.75H238.538V615.633H236.922V609.75ZM238.538 608.84H236.922V607.508H238.538V608.84Z" fill="white"/>
<path d="M239.22 614.416L242.282 610.968H239.448V609.75H244.409V610.968L241.348 614.416H244.626V615.633H239.22V614.416" fill="white"/>
<path d="M249.223 612.06C249.075 611.241 248.722 610.808 247.937 610.808C246.913 610.808 246.617 611.605 246.594 612.06H249.223ZM246.594 613.084C246.64 614.108 247.14 614.575 248.039 614.575C248.688 614.575 249.211 614.177 249.314 613.813H250.736C250.281 615.201 249.314 615.793 247.982 615.793C246.127 615.793 244.978 614.518 244.978 612.697C244.978 610.934 246.196 609.591 247.982 609.591C249.985 609.591 250.952 611.275 250.839 613.084H246.594Z" fill="white"/>
<path d="M254.354 610.808C253.296 610.808 252.932 611.719 252.932 612.686C252.932 613.608 253.353 614.575 254.354 614.575C255.424 614.575 255.742 613.642 255.742 612.675C255.742 611.719 255.401 610.808 254.354 610.808ZM255.765 614.882H255.742C255.367 615.519 254.707 615.793 253.956 615.793C252.181 615.793 251.316 614.268 251.316 612.64C251.316 611.059 252.192 609.591 253.922 609.591C254.616 609.591 255.299 609.887 255.674 610.467H255.663H255.685V607.508H257.302V615.633H255.765V614.882" fill="white"/>
<path d="M263.195 609.011H260.76V607.508H267.417V609.011H264.982V615.633H263.195V609.011Z" fill="white"/>
<path d="M268.122 607.508H274.199V609.011H269.909V610.752H273.846V612.14H269.909V614.131H274.29V615.633H268.122V607.508Z" fill="white"/>
<path d="M276.827 614.131H278.42C279.456 614.131 280.446 613.494 280.446 611.696C280.446 610.057 279.877 609.011 278.102 609.011H276.827V614.131ZM275.041 607.508H278.545C280.651 607.508 282.232 608.828 282.232 611.525C282.232 613.881 281.026 615.633 278.545 615.633H275.041V607.508Z" fill="white"/>
<path d="M289.97 612.06C289.822 611.241 289.469 610.808 288.684 610.808C287.66 610.808 287.364 611.605 287.341 612.06H289.97ZM287.341 613.084C287.386 614.108 287.887 614.575 288.786 614.575C289.435 614.575 289.958 614.177 290.061 613.813H291.483C291.028 615.201 290.061 615.793 288.729 615.793C286.875 615.793 285.725 614.518 285.725 612.697C285.725 610.934 286.943 609.591 288.729 609.591C290.732 609.591 291.699 611.275 291.586 613.084H287.341Z" fill="white"/>
<path d="M295.34 615.633H293.542L291.528 609.75H293.224L294.464 613.767H294.487L295.727 609.75H297.332L295.34 615.633" fill="white"/>
<path d="M301.508 612.06C301.36 611.241 301.007 610.808 300.222 610.808C299.198 610.808 298.902 611.605 298.879 612.06H301.508ZM298.879 613.084C298.924 614.108 299.425 614.575 300.324 614.575C300.973 614.575 301.496 614.177 301.599 613.813H303.021C302.566 615.201 301.599 615.793 300.267 615.793C298.412 615.793 297.263 614.518 297.263 612.697C297.263 610.934 298.481 609.591 300.267 609.591C302.27 609.591 303.237 611.275 303.123 613.084H298.879" fill="white"/>
<path d="M303.851 609.75H305.387V610.57H305.421C305.831 609.909 306.537 609.591 307.219 609.591C308.938 609.591 309.37 610.558 309.37 612.015V615.633H307.754V612.31C307.754 611.343 307.47 610.865 306.719 610.865C305.842 610.865 305.467 611.354 305.467 612.549V615.633H303.851V609.75Z" fill="white"/>
<path d="M312.419 609.75H313.603V610.831H312.419V613.744C312.419 614.291 312.556 614.427 313.102 614.427C313.273 614.427 313.432 614.416 313.603 614.381V615.645C313.33 615.69 312.977 615.702 312.658 615.702C311.668 615.702 310.803 615.474 310.803 614.302V610.831H309.825V609.75H310.803V607.986H312.419V609.75" fill="white"/>
<path d="M121.112 545.986H113.53V539.052H137.02V545.986H129.441V566.105H121.112V545.986Z" fill="#EE2922"/>
<path d="M138.314 539.052H161.117V545.986H146.65V549.357H161.117V555.8H146.65V559.172H161.121V566.105H138.314V539.052Z" fill="#EE2922"/>
<path d="M170.855 559.172H174.114C179.306 559.172 180.066 554.965 180.066 552.423C180.066 550.722 179.532 545.986 173.507 545.986H170.855V559.172ZM162.52 539.052H176.198C185.214 539.052 188.401 545.721 188.401 552.539C188.401 560.839 184.005 566.105 174.57 566.105H162.52V539.052Z" fill="#EE2922"/>
<path d="M200.377 555.68L197.835 551.464L195.355 555.68H189.249L195.046 547.155L189.464 539H195.573L197.835 543.031L200.162 539H206.269L200.689 547.155L206.486 555.68H200.377" fill="#EE2922"/>
<path d="M123.454 579.447C123.101 578.801 122.617 578.309 122 577.971C121.383 577.634 120.664 577.465 119.841 577.465C118.931 577.465 118.123 577.67 117.419 578.082C116.714 578.493 116.163 579.08 115.767 579.844C115.37 580.607 115.172 581.488 115.172 582.487C115.172 583.515 115.37 584.41 115.767 585.174C116.178 585.938 116.743 586.525 117.463 586.936C118.182 587.347 119.019 587.553 119.974 587.553C121.148 587.553 122.11 587.245 122.859 586.628C123.608 585.996 124.1 585.123 124.335 584.007H119.048V581.65H127.374V584.337C127.169 585.409 126.728 586.4 126.053 587.311C125.377 588.221 124.504 588.955 123.432 589.513C122.374 590.057 121.185 590.328 119.863 590.328C118.38 590.328 117.037 589.998 115.833 589.337C114.643 588.662 113.703 587.729 113.013 586.54C112.338 585.35 112 583.999 112 582.487C112 580.974 112.338 579.623 113.013 578.434C113.703 577.23 114.643 576.297 115.833 575.637C117.037 574.961 118.373 574.623 119.841 574.623C121.574 574.623 123.079 575.049 124.357 575.901C125.634 576.738 126.515 577.92 127 579.447H123.454Z" fill="white"/>
<path d="M132.74 579.888C133.136 579.242 133.65 578.735 134.281 578.368C134.928 578.001 135.662 577.817 136.484 577.817V581.055H135.669C134.7 581.055 133.966 581.283 133.466 581.738C132.982 582.193 132.74 582.986 132.74 584.117V590.196H129.656V577.993H132.74V579.888Z" fill="white"/>
<path d="M137.768 584.051C137.768 582.817 138.01 581.723 138.495 580.769C138.994 579.814 139.662 579.08 140.499 578.566C141.351 578.052 142.298 577.795 143.341 577.795C144.251 577.795 145.044 577.979 145.72 578.346C146.41 578.713 146.961 579.176 147.372 579.734V577.993H150.477V590.196H147.372V588.412C146.975 588.985 146.425 589.462 145.72 589.844C145.03 590.211 144.229 590.394 143.319 590.394C142.291 590.394 141.351 590.13 140.499 589.601C139.662 589.073 138.994 588.331 138.495 587.377C138.01 586.408 137.768 585.299 137.768 584.051ZM147.372 584.095C147.372 583.346 147.225 582.707 146.931 582.178C146.638 581.635 146.241 581.224 145.742 580.945C145.243 580.651 144.707 580.504 144.134 580.504C143.561 580.504 143.033 580.644 142.548 580.923C142.063 581.202 141.667 581.613 141.359 582.156C141.065 582.685 140.918 583.317 140.918 584.051C140.918 584.785 141.065 585.431 141.359 585.989C141.667 586.532 142.063 586.951 142.548 587.245C143.047 587.538 143.576 587.685 144.134 587.685C144.707 587.685 145.243 587.546 145.742 587.267C146.241 586.973 146.638 586.562 146.931 586.033C147.225 585.49 147.372 584.844 147.372 584.095Z" fill="white"/>
<path d="M156.573 579.756C156.969 579.198 157.513 578.735 158.203 578.368C158.908 577.986 159.708 577.795 160.604 577.795C161.646 577.795 162.586 578.052 163.423 578.566C164.275 579.08 164.943 579.814 165.428 580.769C165.927 581.709 166.176 582.803 166.176 584.051C166.176 585.299 165.927 586.408 165.428 587.377C164.943 588.331 164.275 589.073 163.423 589.601C162.586 590.13 161.646 590.394 160.604 590.394C159.708 590.394 158.915 590.211 158.225 589.844C157.549 589.477 156.999 589.014 156.573 588.456V596.011H153.489V577.993H156.573V579.756ZM163.027 584.051C163.027 583.317 162.872 582.685 162.564 582.156C162.27 581.613 161.874 581.202 161.375 580.923C160.89 580.644 160.361 580.504 159.789 580.504C159.231 580.504 158.702 580.651 158.203 580.945C157.718 581.224 157.322 581.635 157.013 582.178C156.72 582.722 156.573 583.361 156.573 584.095C156.573 584.829 156.72 585.468 157.013 586.011C157.322 586.554 157.718 586.973 158.203 587.267C158.702 587.546 159.231 587.685 159.789 587.685C160.361 587.685 160.89 587.538 161.375 587.245C161.874 586.951 162.27 586.532 162.564 585.989C162.872 585.446 163.027 584.8 163.027 584.051Z" fill="white"/>
<path d="M175.29 577.817C176.215 577.817 177.037 578.023 177.757 578.434C178.476 578.83 179.034 579.425 179.431 580.218C179.842 580.996 180.047 581.936 180.047 583.038V590.196H176.964V583.456C176.964 582.487 176.721 581.745 176.237 581.231C175.752 580.703 175.091 580.438 174.254 580.438C173.403 580.438 172.727 580.703 172.228 581.231C171.743 581.745 171.501 582.487 171.501 583.456V590.196H168.417V573.897H171.501V579.513C171.897 578.985 172.426 578.573 173.087 578.28C173.748 577.971 174.482 577.817 175.29 577.817Z" fill="white"/>
<path d="M184.544 576.54C184 576.54 183.545 576.371 183.178 576.033C182.826 575.681 182.649 575.247 182.649 574.734C182.649 574.22 182.826 573.794 183.178 573.456C183.545 573.104 184 572.927 184.544 572.927C185.087 572.927 185.535 573.104 185.887 573.456C186.254 573.794 186.438 574.22 186.438 574.734C186.438 575.247 186.254 575.681 185.887 576.033C185.535 576.371 185.087 576.54 184.544 576.54ZM186.063 577.993V590.196H182.98V577.993H186.063Z" fill="white"/>
<path d="M188.317 584.095C188.317 582.832 188.574 581.731 189.088 580.791C189.602 579.836 190.314 579.102 191.225 578.588C192.135 578.06 193.178 577.795 194.352 577.795C195.865 577.795 197.113 578.177 198.097 578.941C199.095 579.689 199.764 580.747 200.101 582.112H196.775C196.599 581.584 196.298 581.173 195.872 580.879C195.461 580.571 194.947 580.416 194.33 580.416C193.449 580.416 192.752 580.739 192.238 581.386C191.724 582.017 191.467 582.92 191.467 584.095C191.467 585.255 191.724 586.158 192.238 586.804C192.752 587.435 193.449 587.751 194.33 587.751C195.579 587.751 196.394 587.193 196.775 586.077H200.101C199.764 587.399 199.095 588.449 198.097 589.227C197.098 590.005 195.85 590.394 194.352 590.394C193.178 590.394 192.135 590.137 191.225 589.623C190.314 589.095 189.602 588.361 189.088 587.421C188.574 586.466 188.317 585.358 188.317 584.095Z" fill="white"/>
<path d="M205.444 577.311V581.165H210.62V583.61H205.444V587.685H211.281V590.196H202.36V574.8H211.281V577.311H205.444Z" fill="white"/>
<path d="M217.167 579.888C217.564 579.242 218.078 578.735 218.709 578.368C219.355 578.001 220.089 577.817 220.912 577.817V581.055H220.097C219.128 581.055 218.393 581.283 217.894 581.738C217.409 582.193 217.167 582.986 217.167 584.117V590.196H214.083V577.993H217.167V579.888Z" fill="white"/>
<path d="M222.196 584.051C222.196 582.817 222.438 581.723 222.923 580.769C223.422 579.814 224.09 579.08 224.927 578.566C225.779 578.052 226.726 577.795 227.768 577.795C228.679 577.795 229.472 577.979 230.147 578.346C230.837 578.713 231.388 579.176 231.799 579.734V577.993H234.905V590.196H231.799V588.412C231.403 588.985 230.852 589.462 230.147 589.844C229.457 590.211 228.657 590.394 227.746 590.394C226.719 590.394 225.779 590.13 224.927 589.601C224.09 589.073 223.422 588.331 222.923 587.377C222.438 586.408 222.196 585.299 222.196 584.051ZM231.799 584.095C231.799 583.346 231.652 582.707 231.359 582.178C231.065 581.635 230.669 581.224 230.169 580.945C229.67 580.651 229.134 580.504 228.561 580.504C227.989 580.504 227.46 580.644 226.975 580.923C226.491 581.202 226.094 581.613 225.786 582.156C225.492 582.685 225.346 583.317 225.346 584.051C225.346 584.785 225.492 585.431 225.786 585.989C226.094 586.532 226.491 586.951 226.975 587.245C227.475 587.538 228.003 587.685 228.561 587.685C229.134 587.685 229.67 587.546 230.169 587.267C230.669 586.973 231.065 586.562 231.359 586.033C231.652 585.49 231.799 584.844 231.799 584.095Z" fill="white"/>
<path d="M240.956 574.822V584.337C240.956 585.38 241.228 586.18 241.771 586.738C242.315 587.281 243.078 587.553 244.062 587.553C245.061 587.553 245.832 587.281 246.375 586.738C246.918 586.18 247.19 585.38 247.19 584.337V574.822H250.296V584.315C250.296 585.622 250.009 586.731 249.437 587.641C248.879 588.537 248.122 589.212 247.168 589.667C246.228 590.123 245.178 590.35 244.018 590.35C242.873 590.35 241.83 590.123 240.89 589.667C239.965 589.212 239.231 588.537 238.688 587.641C238.144 586.731 237.873 585.622 237.873 584.315V574.822H240.956Z" fill="white"/>
<path d="M260.037 577.817C261.491 577.817 262.666 578.28 263.561 579.205C264.457 580.115 264.905 581.393 264.905 583.038V590.196H261.821V583.456C261.821 582.487 261.579 581.745 261.094 581.231C260.61 580.703 259.949 580.438 259.112 580.438C258.26 580.438 257.585 580.703 257.086 581.231C256.601 581.745 256.359 582.487 256.359 583.456V590.196H253.275V577.993H256.359V579.513C256.77 578.985 257.291 578.573 257.923 578.28C258.569 577.971 259.274 577.817 260.037 577.817Z" fill="white"/>
<path d="M269.401 576.54C268.858 576.54 268.403 576.371 268.036 576.033C267.683 575.681 267.507 575.247 267.507 574.734C267.507 574.22 267.683 573.794 268.036 573.456C268.403 573.104 268.858 572.927 269.401 572.927C269.945 572.927 270.393 573.104 270.745 573.456C271.112 573.794 271.296 574.22 271.296 574.734C271.296 575.247 271.112 575.681 270.745 576.033C270.393 576.371 269.945 576.54 269.401 576.54ZM270.921 577.993V590.196H267.837V577.993H270.921Z" fill="white"/>
<path d="M279.056 587.355L282.14 577.993H285.422L280.906 590.196H277.162L272.668 577.993H275.972L279.056 587.355Z" fill="white"/>
<path d="M298.497 583.83C298.497 584.271 298.468 584.667 298.409 585.02H289.488C289.562 585.901 289.87 586.591 290.414 587.09C290.957 587.59 291.625 587.839 292.418 587.839C293.563 587.839 294.378 587.347 294.863 586.364H298.189C297.836 587.538 297.161 588.507 296.162 589.271C295.164 590.02 293.938 590.394 292.484 590.394C291.309 590.394 290.252 590.137 289.312 589.623C288.387 589.095 287.66 588.353 287.132 587.399C286.618 586.444 286.361 585.343 286.361 584.095C286.361 582.832 286.618 581.723 287.132 580.769C287.646 579.814 288.365 579.08 289.29 578.566C290.215 578.052 291.28 577.795 292.484 577.795C293.644 577.795 294.679 578.045 295.59 578.544C296.515 579.043 297.227 579.756 297.726 580.681C298.24 581.591 298.497 582.641 298.497 583.83ZM295.303 582.949C295.289 582.156 295.002 581.525 294.444 581.055C293.886 580.571 293.204 580.328 292.396 580.328C291.632 580.328 290.986 580.563 290.458 581.033C289.944 581.488 289.628 582.127 289.51 582.949H295.303Z" fill="white"/>
<path d="M303.832 579.888C304.228 579.242 304.742 578.735 305.374 578.368C306.02 578.001 306.754 577.817 307.576 577.817V581.055H306.761C305.792 581.055 305.058 581.283 304.559 581.738C304.074 582.193 303.832 582.986 303.832 584.117V590.196H300.748V577.993H303.832V579.888Z" fill="white"/>
<path d="M314.323 590.394C313.324 590.394 312.429 590.218 311.636 589.866C310.843 589.499 310.211 589.007 309.741 588.39C309.286 587.773 309.037 587.09 308.993 586.341H312.098C312.157 586.811 312.385 587.201 312.781 587.509C313.192 587.817 313.699 587.971 314.301 587.971C314.888 587.971 315.343 587.854 315.667 587.619C316.004 587.384 316.173 587.083 316.173 586.716C316.173 586.319 315.968 586.026 315.556 585.835C315.16 585.629 314.521 585.409 313.64 585.174C312.73 584.954 311.981 584.726 311.393 584.491C310.821 584.256 310.321 583.897 309.896 583.412C309.484 582.927 309.279 582.274 309.279 581.452C309.279 580.776 309.47 580.159 309.852 579.601C310.248 579.043 310.806 578.603 311.526 578.28C312.26 577.957 313.119 577.795 314.103 577.795C315.556 577.795 316.716 578.162 317.583 578.897C318.449 579.616 318.926 580.593 319.015 581.826H316.063C316.019 581.341 315.813 580.96 315.446 580.681C315.094 580.387 314.617 580.24 314.015 580.24C313.457 580.24 313.023 580.343 312.715 580.549C312.421 580.754 312.274 581.04 312.274 581.408C312.274 581.819 312.48 582.134 312.891 582.355C313.302 582.56 313.941 582.773 314.807 582.993C315.689 583.214 316.415 583.441 316.988 583.676C317.561 583.911 318.053 584.278 318.464 584.778C318.89 585.262 319.11 585.908 319.125 586.716C319.125 587.421 318.926 588.052 318.53 588.61C318.148 589.168 317.59 589.609 316.856 589.932C316.136 590.24 315.292 590.394 314.323 590.394Z" fill="white"/>
<path d="M323.22 576.54C322.677 576.54 322.221 576.371 321.854 576.033C321.502 575.681 321.326 575.247 321.326 574.734C321.326 574.22 321.502 573.794 321.854 573.456C322.221 573.104 322.677 572.927 323.22 572.927C323.763 572.927 324.211 573.104 324.564 573.456C324.931 573.794 325.114 574.22 325.114 574.734C325.114 575.247 324.931 575.681 324.564 576.033C324.211 576.371 323.763 576.54 323.22 576.54ZM324.74 577.993V590.196H321.656V577.993H324.74Z" fill="white"/>
<path d="M331.377 580.526V586.43C331.377 586.841 331.472 587.142 331.663 587.333C331.869 587.509 332.206 587.597 332.676 587.597H334.108V590.196H332.17C329.571 590.196 328.271 588.933 328.271 586.408V580.526H326.817V577.993H328.271V574.976H331.377V577.993H334.108V580.526H331.377Z" fill="white"/>
<path d="M348 577.993L340.445 595.967H337.163L339.806 589.888L334.916 577.993H338.374L341.524 586.518L344.718 577.993H348Z" fill="white"/>
<defs>
<filter id="filter0_d_538_283" x="0" y="0" width="455" height="737" filterUnits="userSpaceOnUse" color-interpolation-filters="sRGB">
<feFlood flood-opacity="0" result="BackgroundImageFix"/>
<feColorMatrix in="SourceAlpha" type="matrix" values="0 0 0 0 0 0 0 0 0 0 0 0 0 0 0 0 0 0 127 0" result="hardAlpha"/>
<feMorphology radius="19" operator="dilate" in="SourceAlpha" result="effect1_dropShadow_538_283"/>
<feOffset dy="4"/>
<feGaussianBlur stdDeviation="16"/>
<feComposite in2="hardAlpha" operator="out"/>
<feColorMatrix type="matrix" values="0 0 0 0 0.898039 0 0 0 0 0.372549 0 0 0 0 0.447059 0 0 0 0.2 0"/>
<feBlend mode="normal" in2="BackgroundImageFix" result="effect1_dropShadow_538_283"/>
<feBlend mode="normal" in="SourceGraphic" in2="effect1_dropShadow_538_283" result="shape"/>
</filter>
<filter id="filter1_d_538_283" x="10" y="12" width="435" height="713" filterUnits="userSpaceOnUse" color-interpolation-filters="sRGB">
<feFlood flood-opacity="0" result="BackgroundImageFix"/>
<feColorMatrix in="SourceAlpha" type="matrix" values="0 0 0 0 0 0 0 0 0 0 0 0 0 0 0 0 0 0 127 0" result="hardAlpha"/>
<feMorphology radius="19" operator="dilate" in="SourceAlpha" result="effect1_dropShadow_538_283"/>
<feOffset dy="4"/>
<feGaussianBlur stdDeviation="16"/>
<feComposite in2="hardAlpha" operator="out"/>
<feColorMatrix type="matrix" values="0 0 0 0 0.898039 0 0 0 0 0.372549 0 0 0 0 0.447059 0 0 0 0.2 0"/>
<feBlend mode="normal" in2="BackgroundImageFix" result="effect1_dropShadow_538_283"/>
<feBlend mode="normal" in="SourceGraphic" in2="effect1_dropShadow_538_283" result="shape"/>
</filter>
<linearGradient id="paint0_linear_538_283" x1="96.9999" y1="295.5" x2="370" y2="467.5" gradientUnits="userSpaceOnUse">
<stop stop-color="#EE2922"/>
<stop offset="1" stop-color="#6322EE"/>
</linearGradient>
</defs>
</svg>
